# xmcd
#
# Track frame offsets:
#	150
#	19157
#	34564
#	44559
#	52291
#	61933
#	73982
#	94362
#	116812
#	128774
#	155438
#	163991
#	170931
#	183631
#
# Disc length: 2672 seconds
#
# Revision: 0
# Processed by: cddbd v1.5.2PL0 Copyright (c) Steve Scherf et al.
# Submitted via: EasyCDDAExtractor 16.1.0.1
#
DISCID=d90a6e0e
DTITLE=Krüger Brothers - The Suite Vol. One
DYEAR=2007
DGENRE=Bluegrass
TTITLE0=Wind In The Wheat
TTITLE1=Choices
TTITLE2=Buon Fresco
TTITLE3=Theme From "Sarah"
TTITLE4=In The Dome Of The Forest
TTITLE5=Roll Away
TTITLE6=High Up In The Sky
TTITLE7=Winterport
TTITLE8=Shower
TTITLE9=Premonitions I - IV
TTITLE10=The Gentle Touch Of Falling Leaves 
TTITLE11=Private Angel
TTITLE12=Theme From "Pacific Morning"
TTITLE13=I Know Some Day
EXTD=
EXTT0=
EXTT1=
EXTT2=
EXTT3=
EXTT4=
EXTT5=
EXTT6=
EXTT7=
EXTT8=
EXTT9=
EXTT10=
EXTT11=
EXTT12=
EXTT13=
PLAYORDER=
